<svg xmlns="http://www.w3.org/2000/svg" version="1.1" xmlns:xlink="http://www.w3.org/1999/xlink" xmlns:svgjs="http://svgjs.dev/svgjs" width="100%" height="100%" viewBox="0 0 1000 600"><rect width="1000" height="600" x="0" y="0" fill="LIGHTGREEN"/><g><circle r="166.66666666666666" cx="396.82889811197913" cy="419.05104259836423" fill="BlCK" transform="matrix(0.5430952344542304,0,0,0.5430952344542304,0,72.41534906887081)"/><path d="M405.1324479709677 494.0510276052696L347.8110211349668 494.0510276052696L347.8110211349668 344.0510321465757L398.4955434099977 344.0510321465757Q409.4181621269303 344.0510321465757 418.3764951890468 348.4855558218427Q427.3050663473024 352.9498414009705 432.602685234534 361.46174590517415Q437.93006602562656 369.9736504093778 437.93006602562656 382.08674528074454L437.93006602562656 382.08674528074454Q437.93006602562656 388.9319831687405 435.45982800517584 395.15222107565853Q432.9895899847251 401.37245898257663 429.03125677123177 405.717696946261Q425.0729235577385 410.0629349099454 420.45982845930644 411.34269677596205L420.45982845930644 411.34269677596205Q427.0967330202764 413.0391252960306 431.9181614457344 417.29507754813244Q436.73958987119244 421.5212678963734 439.83482787272106 427.23555343765696Q442.95982777811054 432.9796008828014 444.3883991634314 439.289124501302Q445.84673245261314 445.6284100236635 445.84673245261314 451.7296003151381L445.84673245261314 451.7296003151381Q445.84673245261314 464.3784094560002 440.34078023835553 473.90221869147285Q434.8050661202371 483.45578983080634 425.60863782723385 488.753408718038Q416.3824476303697 494.0510276052696 405.1324479709677 494.0510276052696L405.1324479709677 494.0510276052696ZM362.8110206808362 418.8426965488967L362.8110206808362 480.65817086788627L403.94197181653357 480.65817086788627Q411.76935253193767 480.65817086788627 418.13839995816 476.58079003894954Q424.53720928824316 472.5034092100128 428.3169710785714 465.44983799499084Q432.1264947727604 458.36650487610814 432.1264947727604 449.46769562171335L432.1264947727604 449.46769562171335Q432.1264947727604 441.55102919472677 428.3169710785714 434.5272198835657Q424.53720928824316 427.5034105724046 418.13839995816 423.1879345125811Q411.76935253193767 418.8426965488967 403.94197181653357 418.8426965488967L403.94197181653357 418.8426965488967L362.8110206808362 418.8426965488967ZM362.8110206808362 357.4438888839591L362.8110206808362 405.65817313853927L397.21578154398105 405.65817313853927Q407.8110193184444 405.65817313853927 415.3705428991007 399.49745903934297Q422.93006647975716 393.33674494014656 422.93006647975716 381.96769766530116L422.93006647975716 381.96769766530116Q422.93006647975716 369.55698375532586 415.3705428991007 363.4855553677121Q407.8110193184444 357.4438888839591 397.21578154398105 357.4438888839591L397.21578154398105 357.4438888839591L362.8110206808362 357.4438888839591Z " fill="WHITE" transform="matrix(0.5430952344542304,0,0,0.5430952344542304,0,72.41534906887081)"/><path d="M703.1007903135807 491.3046350539007L646.8288777422213 491.3046350539007L646.8288777422213 344.05103206342767L696.5854027209466 344.05103206342767Q707.3080361133084 344.05103206342767 716.1023485141283 348.40436278675713Q724.8674439302279 352.78691049480693 730.068067210447 361.1429681248219Q735.2979074753864 369.4990257548368 735.2979074753864 381.3903385360119L735.2979074753864 381.3903385360119Q735.2979074753864 388.11024502168823 732.8728977435989 394.21659482823765Q730.4478880118113 400.322944634787 726.5620290440071 404.58862440395546Q722.676170076203 408.8543041731239 718.1475374445515 410.11063451609823L718.1475374445515 410.11063451609823Q724.6629250371856 411.7760026451571 729.3960765618793 415.9540314601646Q734.1292280865731 420.10284329045174 737.1677944974876 425.71250435675546Q740.2355778931225 431.3513824077795 741.6379931596985 437.5453831684899Q743.0696254109947 443.76860091392064 743.0696254109947 449.75808278158866L743.0696254109947 449.75808278158866Q743.0696254109947 462.1753012877297 737.6644832377333 471.524736398236Q732.2301240797516 480.9033884934625 723.2020758011689 486.1040117736816Q714.1448105378661 491.3046350539007 703.1007903135807 491.3046350539007L703.1007903135807 491.3046350539007ZM661.5542380412686 417.47331466562184L661.5542380412686 478.15699192975126L701.9321109247672 478.15699192975126Q709.6161779062146 478.15699192975126 715.8686126363656 474.1542650230658Q722.1502643512371 470.1515381163803 725.8608214107192 463.2271127376617Q729.6005954549216 456.27347037422265 729.6005954549216 447.5375919428434L729.6005954549216 447.5375919428434Q729.6005954549216 439.76587400723514 725.8608214107192 432.8706656132368Q722.1502643512371 425.9754572192385 715.8686126363656 421.7389944347903Q709.6161779062146 417.47331466562184 701.9321109247672 417.47331466562184L701.9321109247672 417.47331466562184L661.5542380412686 417.47331466562184ZM661.5542380412686 357.19867518757707L661.5542380412686 404.5301904345148L695.3290723779722 404.5301904345148Q705.7303189384105 404.5301904345148 713.1514330573748 398.4822745974061Q720.5725471763391 392.43435876029736 720.5725471763391 381.2734705971306L720.5725471763391 381.2734705971306Q720.5725471763391 369.08998796875215 713.1514330573748 363.12972308580447Q705.7303189384105 357.19867518757707 695.3290723779722 357.19867518757707L695.3290723779722 357.19867518757707L661.5542380412686 357.19867518757707ZM764.1058544096337 491.3046350539007L764.1058544096337 386.12349006070565L778.831214708681 386.12349006070565L778.831214708681 491.3046350539007L764.1058544096337 491.3046350539007ZM771.5854024980387 367.71678968689656L771.5854024980387 367.71678968689656Q767.9917133774378 367.71678968689656 765.53748666093 365.3502139245497Q763.0540429597017 362.98363816220274 763.0540429597017 359.4191660263223L763.0540429597017 359.4191660263223Q763.0540429597017 355.8254769057215 765.53748666093 353.45890114337453Q767.9917133774378 351.09232538102765 771.5854024980387 351.09232538102765L771.5854024980387 351.09232538102765Q775.0330066950378 351.09232538102765 777.516450396266 353.45890114337453Q779.9998940974942 355.8254769057215 779.9998940974942 359.4191660263223L779.9998940974942 359.4191660263223Q779.9998940974942 362.98363816220274 777.5748843657067 365.3502139245497Q775.1498746339191 367.71678968689656 771.5854024980387 367.71678968689656ZM849.3025818541216 494.0510316176119L849.3025818541216 494.0510316176119Q834.7817404481167 494.0510316176119 822.8612106822212 486.5714835292069Q810.9114639316055 479.0919354408019 803.8117366445648 466.52863201105913Q796.7120093575242 453.96532858131644 796.7120093575242 438.7140625573032L796.7120093575242 438.7140625573032Q796.7120093575242 427.1441366080517 800.8023872183707 417.09349386425754Q804.9219820639374 407.04285112046335 812.109360305139 399.4172181084567Q819.325955531061 391.79158509645004 828.9091265193299 387.4966883425613Q838.4630805228785 383.17257460395217 849.3025818541216 383.17257460395217L849.3025818541216 383.17257460395217Q863.8234232601266 383.17257460395217 875.743953026022 390.6521226923571Q887.6936997766378 398.1024537960418 894.7934270636785 410.72419119522516Q901.8931543507192 423.3459285944086 901.8931543507192 438.7140625573032L901.8931543507192 438.7140625573032Q901.8931543507192 450.1671205676733 897.8027764898726 460.1593293420268Q893.6831816443058 470.1515381163803 886.4958034031042 477.77717112838695Q879.2792081771822 485.40280414039364 869.754471158354 489.7269178790027Q860.2297341395258 494.0510316176119 849.3025818541216 494.0510316176119ZM849.3025818541216 479.32567131856456L849.3025818541216 479.32567131856456Q860.0252152464834 479.32567131856456 868.6150087542611 473.6867932675405Q877.1755852773183 468.04791521651646 882.171689664495 458.81534804489155Q887.1677940516718 449.5535638885463 887.1677940516718 438.7140625573032L887.1677940516718 438.7140625573032Q887.1677940516718 427.6700423330177 882.1132556950544 418.3498242072318Q877.058717338437 409.05882306616627 868.4981408153797 403.47837898458283Q859.9375642923225 397.89793490299945 849.3025818541216 397.89793490299945L849.3025818541216 397.89793490299945Q838.5799484617598 397.89793490299945 829.9901549539823 403.5368129540235Q821.429578430925 409.1464740203272 816.4334740437482 418.40825817667246Q811.4373696565715 427.6700423330177 811.4373696565715 438.7140625573032L811.4373696565715 438.7140625573032Q811.4373696565715 450.0794696135123 816.5795589673498 459.28281980041686Q821.7509652628486 468.48616998732143 830.3699757553466 473.89131216058286Q838.9889862478444 479.32567131856456 849.3025818541216 479.32567131856456ZM1011.0770262505996 405.0560961594808L1011.0770262505996 344.05103206342767L1025.802386549647 344.05103206342767L1025.802386549647 491.3046350539007L1011.0770262505996 491.3046350539007L1011.0770262505996 419.78145645852806L933.7688846806013 419.78145645852806L933.7688846806013 491.3046350539007L919.0435243815539 491.3046350539007L919.0435243815539 344.05103206342767L933.7688846806013 344.05103206342767L933.7688846806013 405.0560961594808L1011.0770262505996 405.0560961594808ZM1137.2944002424338 405.78652077748905L1136.7684945174678 386.12349006070565L1151.493854816515 386.12349006070565L1151.493854816515 491.3046350539007L1136.7684945174678 491.3046350539007L1136.242588792502 471.72925529127826Q1131.071182497003 481.7214640656318 1121.8386153253782 487.88624784162187Q1112.5768311690326 494.0510316176119 1099.7505748768071 494.0510316176119L1099.7505748768071 494.0510316176119Q1088.1806489275555 494.0510316176119 1078.071572214321 489.66848390956204Q1067.9624955010859 485.31515318623264 1060.3076455043588 477.63108620478533Q1052.6235785229119 469.94701922333803 1048.2994647843025 459.8671594948235Q1044.0045680304138 449.75808278158866 1044.0045680304138 438.1881568323372L1044.0045680304138 438.1881568323372Q1044.0045680304138 426.8227497761281 1048.241030814862 416.8305410017746Q1052.5067105840303 406.838332227421 1060.0446926418758 399.27113318485505Q1067.5534577150015 391.7039341422891 1077.487232519914 387.4382543731206Q1087.4210073248269 383.17257460395217 1098.7864143810361 383.17257460395217L1098.7864143810361 383.17257460395217Q1111.9340575051856 383.17257460395217 1121.7217473864966 389.4250093341032Q1131.5094372678082 395.7066610489745 1137.2944002424338 405.78652077748905L1137.2944002424338 405.78652077748905ZM1099.4291880448836 479.73470910464926L1099.4291880448836 479.73470910464926Q1110.6777271622113 479.73470910464926 1118.770831929743 474.2126989925065Q1126.8639366972752 468.6906888803637 1131.2464844053247 459.34125376985753Q1135.5998151286544 449.96260167463095 1135.5998151286544 438.7140625573032L1135.5998151286544 438.7140625573032Q1135.5998151286544 427.1441366080517 1131.1880504358842 417.82391848226587Q1126.7762857431144 408.5329173412003 1118.6831809755822 403.0693411984982Q1110.5608592233298 397.5765480710758 1099.4291880448836 397.5765480710758L1099.4291880448836 397.5765480710758Q1088.2682998817168 397.5765480710758 1079.0649496948122 403.09855818321853Q1069.8615995079076 408.6205682953613 1064.456457334646 417.9992203905878Q1059.0220981766643 427.3486555010941 1059.0220981766643 438.7140625573032L1059.0220981766643 438.7140625573032Q1059.0220981766643 450.1671205676733 1064.602542258248 459.48733869345915Q1070.1829863398311 468.80755681924506 1079.3863365267357 474.27113296194716Q1088.5896867136403 479.73470910464926 1099.4291880448836 479.73470910464926ZM1187.255444114201 491.3046350539007L1172.5300838151538 491.3046350539007L1172.5300838151538 386.12349006070565L1187.255444114201 386.12349006070565L1187.255444114201 400.64433146671064Q1192.8358881957847 392.6388776533397 1201.7762855202063 387.90572612864594Q1210.716682844628 383.17257460395217 1221.2347973439473 383.17257460395217L1221.2347973439473 383.17257460395217Q1227.3119301657762 383.17257460395217 1233.009242186241 384.75029177885006L1233.009242186241 384.75029177885006L1227.019760318573 399.3880011237364Q1222.5787786410824 398.0148028418808 1218.371532841355 398.0148028418808L1218.371532841355 398.0148028418808Q1209.869390287738 398.0148028418808 1202.7696630006976 402.2220486416086Q1195.6699357136567 406.42929444133637 1191.462689913929 413.4705877589364Q1187.255444114201 420.5118810765364 1187.255444114201 429.1308915690343L1187.255444114201 429.1308915690343L1187.255444114201 491.3046350539007ZM1336.9340568364619 385.802103228782L1298.5429389139458 491.3046350539007L1279.8148517082127 491.3046350539007L1241.4237337856966 385.802103228782L1257.0840375957946 385.802103228782L1289.1642868187191 474.0666140689048L1321.2445360416436 385.802103228782L1336.9340568364619 385.802103228782ZM1396.565922650659 494.0510316176119L1396.565922650659 494.0510316176119Q1382.0450812446543 494.0510316176119 1370.0953344940385 486.5714835292069Q1358.174804728143 479.0919354408019 1351.0750774411026 466.52863201105913Q1343.9753501540617 453.96532858131644 1343.9753501540617 438.7140625573032L1343.9753501540617 438.7140625573032Q1343.9753501540617 427.1441366080517 1348.0657280149085 417.09349386425754Q1352.185322860475 407.04285112046335 1359.3727011016767 399.4172181084567Q1366.5892963275987 391.79158509645004 1376.143250331147 387.4966883425613Q1385.7264213194162 383.17257460395217 1396.565922650659 383.17257460395217L1396.565922650659 383.17257460395217Q1408.2234995540716 383.17257460395217 1418.0696234048237 387.81807517448493Q1427.9157472555758 392.43435876029736 1435.0154745426162 400.73198242087165Q1442.1152018296566 409.05882306616627 1445.738107934978 420.19049424461275Q1449.3610140402993 431.3513824077795 1448.7182403764518 444.29450663888656L1448.7182403764518 444.29450663888656L1359.5480030099989 444.29450663888656Q1360.8043333529731 454.28671541324013 1365.8880886943107 462.1753012877297Q1371.001061020369 470.0638871622194 1378.9480808642993 474.6217367785911Q1386.8951007082296 479.2088033796832 1396.565922650659 479.32567131856456L1396.565922650659 479.32567131856456Q1407.0840371499785 479.32567131856456 1415.5569627188752 473.8328781911422Q1424.0006713030511 468.3693020484401 1429.1720775985495 458.81534804489155L1429.1720775985495 458.81534804489155L1444.1019567906392 462.26295224189073Q1437.7910880910476 476.25788792292974 1425.052482752983 485.1398512779106Q1412.3430943996386 494.0510316176119 1396.565922650659 494.0510316176119ZM1359.1097482391938 432.40319385771147L1359.1097482391938 432.40319385771147L1433.9052291232433 432.40319385771147Q1433.174804505235 422.61550397640025 1427.944964240296 414.4639652394277Q1422.7443409600764 406.312426502455 1414.5343682536636 401.4331900541596Q1406.3536125319706 396.52473662114386 1396.565922650659 396.52473662114386L1396.565922650659 396.52473662114386Q1386.778232769348 396.52473662114386 1378.6851280018163 401.3163221152783Q1370.5920232342842 406.10790760941273 1365.4206169387853 414.25944634638535Q1360.2784276280072 422.41098508335796 1359.1097482391938 432.40319385771147ZM1499.526576805109 493.29139001488323L1499.526576805109 493.29139001488323Q1490.9075663126114 493.0868711218409 1482.697593606198 490.1359556650874Q1474.4876208997848 487.2142571930542 1468.4104880779555 482.1597188364368Q1462.3041382714064 477.10518047981935 1459.6746096465763 470.6774438413463L1459.6746096465763 470.6774438413463L1472.3839979999207 465.21386769864426Q1474.0785831137 469.33346254421105 1478.665649714792 472.7518497564899Q1483.2234993311636 476.17023696876873 1489.1253302446707 478.2154258991919Q1494.9979441734577 480.2606148296152 1500.7829071480833 480.2606148296152L1500.7829071480833 480.2606148296152Q1507.2106437865564 480.2606148296152 1512.7910878681396 478.15699192975126Q1518.3715319497232 476.0533690298874 1521.877570116163 472.10907609264257Q1525.4128252673231 468.1647831553978 1525.4128252673231 462.7888579668567L1525.4128252673231 462.7888579668567Q1525.4128252673231 457.003894992231 1521.61461725368 453.7023757188335Q1517.8456262247573 450.4008564454359 1512.0606632501317 448.44331846917373Q1506.2757002755056 446.48578049291143 1500.1693504689565 444.70354442497126L1500.1693504689565 444.70354442497126Q1489.0084623057896 441.6649780140567 1480.506319752173 437.9836379392949Q1471.9749602138363 434.30229786453305 1467.1833747197015 428.575768859348Q1462.3917892255672 422.8200228694426 1462.3917892255672 413.79197459086004L1462.3917892255672 413.79197459086004Q1462.3917892255672 404.20880360259116 1467.826148383549 397.2259442544318Q1473.23129055681 390.21386792155215 1482.0256029576303 386.38644292318867Q1490.7906983737298 382.5590179248252 1500.7829071480833 382.5590179248252L1500.7829071480833 382.5590179248252Q1513.6383804250295 382.5590179248252 1524.1857119090691 388.11024502168823Q1534.7622603778295 393.69068910327167 1539.4954119025233 402.9524732596169L1539.4954119025233 402.9524732596169L1527.604099121348 409.9937665772169Q1525.7342120992466 405.6988698233281 1521.61461725368 402.5434354735322Q1517.5242393928334 399.3880011237364 1512.3236161126147 397.5765480710758Q1507.0937758476753 395.7943120031356 1501.7470676438543 395.7066610489745L1501.7470676438543 395.7066610489745Q1494.9979441734577 395.58979311009324 1489.212981198832 397.63498204051643Q1483.4280182242064 399.6801709709397 1479.9219800577662 403.6828978776252Q1476.386724906606 407.6856247843107 1476.386724906606 413.4705877589364L1476.386724906606 413.4705877589364Q1476.386724906606 419.25555073356213 1479.8635460883256 422.2649001597563Q1483.3403672700451 425.24503260123015 1489.2714151682726 427.08570263861105Q1495.2316800512203 428.92637267599196 1502.682011154905 431.3513824077795L1502.682011154905 431.3513824077795Q1512.2651821431737 434.38994881869405 1520.6796737426293 438.30502477121854Q1529.094165342085 442.1908837390227 1534.2363546528636 447.97584671364837Q1539.407760948362 453.7608096882741 1539.290893009481 462.58433907381436L1539.290893009481 462.58433907381436Q1539.290893009481 472.0506421232019 1533.6227979737364 479.0919354408019Q1527.9254859532716 486.16244574312225 1518.8974376746892 489.87300280260445Q1509.840172411386 493.6127768468069 1499.526576805109 493.29139001488323ZM1611.1354584367773 386.12349006070565L1611.1354584367773 400.848850359753L1585.979634592571 400.848850359753L1585.8919836384102 491.3046350539007L1571.166623339363 491.3046350539007L1571.2542742935238 400.848850359753L1552.234017240588 400.848850359753L1552.234017240588 386.12349006070565L1571.2542742935238 386.12349006070565L1571.166623339363 353.1082973267306L1585.8919836384102 353.1082973267306L1585.979634592571 386.12349006070565L1611.1354584367773 386.12349006070565Z " fill="black" transform="matrix(0.5430952344542304,0,0,0.5430952344542304,0,72.41534906887081)"/></g></svg>